<?xml version="1.0" standalone="no"?>
<!DOCTYPE svg PUBLIC "-//W3C//DTD SVG 20010904//EN"
 "http://www.w3.org/TR/2001/REC-SVG-20010904/DTD/svg10.dtd">
<svg version="1.0" xmlns="http://www.w3.org/2000/svg"
 width="222.000000pt" height="299.000000pt" viewBox="0 0 222.000000 299.000000"
 preserveAspectRatio="xMidYMid meet">
<g transform="translate(0.000000,299.000000) scale(0.100000,-0.100000)"
fill="#000000" stroke="none">
<path d="M870 2975 c-442 -98 -764 -446 -854 -924 -24 -124 -22 -425 4 -573
62 -364 233 -700 481 -949 167 -168 335 -264 532 -304 22 -4 27 -11 27 -36 0
-17 -12 -60 -26 -95 -14 -36 -23 -72 -20 -79 8 -22 184 -22 192 0 3 7 -6 43
-20 79 -31 76 -34 123 -8 129 9 3 42 11 72 17 79 17 205 80 296 148 306 226
538 600 641 1030 34 145 45 487 19 626 -86 454 -373 790 -781 912 -83 25 -107
27 -290 30 -148 3 -217 0 -265 -11z m431 -20 c102 -18 203 -51 299 -99 101
-51 152 -88 247 -179 166 -160 276 -364 330 -617 14 -66 18 -128 18 -280 -1
-172 -4 -210 -28 -321 -110 -521 -444 -991 -822 -1158 -264 -117 -551 -28
-835 258 -121 123 -212 252 -294 416 -143 286 -205 563 -193 870 10 266 77
476 217 680 56 79 186 210 262 263 109 75 275 142 411 167 98 18 287 18 388 0z"/>
</g>
</svg>
