<?xml version="1.0" standalone="no"?>
<!DOCTYPE svg PUBLIC "-//W3C//DTD SVG 20010904//EN"
 "http://www.w3.org/TR/2001/REC-SVG-20010904/DTD/svg10.dtd">
<svg version="1.0" xmlns="http://www.w3.org/2000/svg"
 width="200.000000pt" height="200.000000pt" viewBox="0 0 200.000000 200.000000"
 preserveAspectRatio="xMidYMid meet">
<g transform="translate(0.000000,200.000000) scale(0.100000,-0.100000)"
fill="#000000" stroke="none">
<path d="M879 1910 c-210 -53 -370 -244 -399 -477 -18 -140 19 -294 109 -448
60 -104 223 -270 298 -304 l52 -24 -35 -40 c-20 -21 -47 -62 -60 -91 -21 -45
-24 -65 -24 -179 0 -145 -9 -172 -64 -206 -37 -23 -49 -43 -40 -66 17 -43 123
18 155 88 15 34 19 66 19 167 0 101 4 133 19 165 23 48 76 113 86 103 4 -4 15
-42 24 -85 12 -58 20 -79 34 -81 23 -5 147 94 147 118 0 12 -25 34 -70 62
l-70 44 55 27 c65 32 191 149 250 232 199 280 208 593 26 822 -48 59 -152 132
-226 158 -57 21 -229 29 -286 15z"/>
</g>
</svg>
