<?xml version="1.0"?>
<svg width="640" height="480" xmlns="http://www.w3.org/2000/svg">
 <title>yellow balloon</title>
 <g>
  <title>Layer 1</title>
  <g id="g13540">
   <path d="m291.313782,301.924164c-2.704681,31.348297 -19.556091,64.950775 -3.223938,95.172699c21.351898,32.589264 69.063843,36.458282 85.49823,73.722931c13.752777,23.799164 11.53302,51.690277 8.98288,77.901337c-1.787201,20.53894 1.543884,42.825867 16.851532,57.900757c9.052643,12.180847 17.175507,26.574036 15.821259,42.306091" id="path2211" stroke-miterlimit="4" stroke-linejoin="round" stroke-linecap="round" stroke-width="3.75" stroke="#000000" fill-rule="evenodd" fill-opacity="0.75" fill="none"/>
   <path stroke="#000000" d="m284.600922,278.429138c1.608337,5.053345 -0.203583,10.424377 -2.653473,14.883118c-0.934479,2.080109 -2.501862,3.742493 -3.756134,5.611816c-0.936432,1.366974 -1.465454,3.757477 0.449432,4.563751c1.39151,0.506866 2.939453,0.41922 4.410797,0.411621c3.905945,-0.251343 7.878052,-2.07431 11.762817,-0.73587c3.055084,1.349976 6.041046,3.38324 9.532654,3.142822c2.283356,-0.025696 3.590515,-2.728638 2.15213,-4.528412c-1.290039,-2.134033 -3.230713,-3.904663 -3.854401,-6.404663c-2.152405,-5.636139 -1.59726,-11.871338 -0.177185,-17.610382c0.213379,-2.315796 -2.59903,-3.593262 -4.536438,-2.819794c-3.999329,1.0401 -7.367737,4.381897 -11.732361,3.914093c-0.549103,-0.066772 -1.089966,-0.208008 -1.597839,-0.428101z" id="path1553" stroke-width="5" fill-rule="evenodd" fill="#ffff00"/>
   <path className="svg svgPath"  stroke="#000000" d="m411.400085,149.02623c0.021606,-72.885857 -50.798157,-131.984859 -113.495056,-131.984859c-62.696899,0 -113.516708,59.099033 -113.495056,131.984875c-0.021637,72.885864 50.798157,131.984863 113.495056,131.984863c62.696899,0 113.516693,-59.099045 113.495056,-131.984909l0,0.000031z" id="path930" stroke-width="5" fill-rule="evenodd" fill="#ffff00"/>
  </g>
  <ellipse ry="19" rx="31" id="svg_1" cy="653" cx="941" stroke-width="5" stroke="#000000" fill="#ffff00"/>
  <ellipse ry="24" rx="14" id="svg_2" cy="590" cx="923" stroke-width="5" stroke="#000000" fill="#ffff00"/>
 </g>
</svg>
